<svg version="1.1" id="Layer_1" xmlns="http://www.w3.org/2000/svg" xmlns:xlink="http://www.w3.org/1999/xlink" x="0px" y="0px"
	 viewBox="0 0 98.253 94.749" style="enable-background:new 0 0 98.253 94.749;" xml:space="preserve">
<circle style="fill:#FFFFFF;stroke:#000000;stroke-width:3;stroke-miterlimit:10;" cx="52.303" cy="48.799" r="44.45"/>
<circle cx="52.133" cy="46.942" r="18.27"/>
<path style="stroke:#FFFFFF;stroke-miterlimit:10;" d="M22.538,49.664c-7.34-0.81-14.68-1.62-22.02-2.43
	c-0.117-4.158,0.087-16.169,8.177-28.106C17.29,6.448,29.322,1.911,33.164,0.635c2.175,6.898,4.35,13.795,6.525,20.693
	c-2.711,1.395-6.738,3.897-10.44,8.203c-0.597,0.695-1.856,2.172-3.03,4.14C22.898,39.24,22.346,45.248,22.538,49.664z"/>
<path style="fill:#FFFFFF;stroke:#000000;stroke-miterlimit:10;" d="M15.174,25.829"/>
<circle style="fill:#FFFFFF;" cx="52.303" cy="46.942" r="8.016"/>
<circle style="fill:#FFFFFF;" cx="52.303" cy="33.504" r="2.796"/>
<circle style="fill:#FFFFFF;" cx="52.303" cy="60.379" r="2.796"/>
<circle style="fill:#FFFFFF;" cx="38.601" cy="46.942" r="2.796"/>
<circle style="fill:#FFFFFF;" cx="65.633" cy="46.942" r="2.796"/>
</svg>
