<svg version="1.1" id="Layer_1" xmlns="http://www.w3.org/2000/svg" xmlns:xlink="http://www.w3.org/1999/xlink" x="0px" y="0px"
	 viewBox="0 0 100 100" style="enable-background:new 0 0 100 100;" xml:space="preserve">
<path d="M33.987,92.644H22.627c-1.786,0-3.247-1.461-3.247-3.247V62.988c0-1.786,1.461-3.247,3.247-3.247h11.359
	c1.786,0,3.247,1.461,3.247,3.247v26.409C37.233,91.183,35.772,92.644,33.987,92.644z"/>
<path d="M77.588,92.644H66.229c-1.786,0-3.247-1.461-3.247-3.247V62.988c0-1.786,1.461-3.247,3.247-3.247h11.359
	c1.786,0,3.247,1.461,3.247,3.247v26.409C80.835,91.183,79.374,92.644,77.588,92.644z"/>
<path d="M73.828,80.619H26.172c-5.194,0-9.443-3.895-9.443-8.656c0.173-1.834,0.345-3.669,0.518-5.503
	c0.021-0.691,0.139-1.728,0.63-2.858c0.939-2.162,2.634-3.261,3.678-3.938c1.744-1.131,3.479-1.582,4.617-1.779h47.657
	c0.953,0.156,3.679,0.729,6.036,3.095c2.164,2.172,2.795,4.63,2.991,5.599c0.138,1.794,0.277,3.589,0.415,5.383
	C83.271,76.723,79.022,80.619,73.828,80.619z"/>
<line style="fill:#FFFFFF;stroke:#000000;stroke-width:2;stroke-miterlimit:10;" x1="25.064" y1="59.742" x2="32.881" y2="43.766"/>
<line style="fill:#FFFFFF;stroke:#000000;stroke-width:2;stroke-miterlimit:10;" x1="74.281" y1="59.742" x2="66.464" y2="43.766"/>
<line style="fill:#FFFFFF;stroke:#000000;stroke-width:2;stroke-miterlimit:10;" x1="67.33" y1="44.254" x2="32.001" y2="44.333"/>
<path d="M19.361,52.221c2.116-0.936,4.55,1.483,5.145,2.074c0.838,0.833,2.032,2.019,1.835,3.59
	c-0.197,1.571-1.688,2.735-3.031,3.031c-2.617,0.578-5.69-1.913-5.903-4.706C17.298,54.779,17.909,52.863,19.361,52.221z"/>
<path style="fill:#FFFFFF;" d="M21.665,70.08c0.999-2.087,4.421-1.832,5.257-1.77c1.178,0.088,2.857,0.213,3.728,1.534
	c0.872,1.322,0.496,3.176-0.332,4.274c-1.613,2.141-5.567,2.246-7.545,0.263C21.76,73.365,20.979,71.512,21.665,70.08z"/>
<path style="fill:#FFFFFF;" d="M69.419,70.08c0.999-2.087,4.421-1.832,5.257-1.77c1.178,0.088,2.857,0.213,3.728,1.534
	c0.872,1.322,0.496,3.176-0.332,4.274c-1.613,2.141-5.567,2.246-7.545,0.263C69.514,73.365,68.733,71.512,69.419,70.08z"/>
<path d="M80.148,52.221c-2.116-0.936-4.55,1.483-5.145,2.074c-0.838,0.833-2.032,2.019-1.835,3.59
	c0.197,1.571,1.688,2.735,3.031,3.031c2.617,0.578,5.69-1.913,5.903-4.706C82.212,54.779,81.6,52.863,80.148,52.221z"/>
<g>
	<line x1="38.779" y1="73.679" x2="61.221" y2="73.679"/>
	<g>
		<path style="fill:#FFFFFF;" d="M38.779,74.304c6.554,0,13.107,0,19.661,0c0.927,0,1.854,0,2.781,0c0.804,0,0.806-1.25,0-1.25
			c-6.554,0-13.107,0-19.661,0c-0.927,0-1.854,0-2.781,0C37.975,73.054,37.974,74.304,38.779,74.304L38.779,74.304z"/>
	</g>
</g>
<g>
	<rect x="48.36" y="6.064" style="stroke:#FFFFFF;stroke-width:0.25;stroke-miterlimit:10;" width="3.191" height="9.574"/>
	<polygon points="49.956,16.319 41.003,16.319 45.479,11.851 49.956,7.383 54.433,11.851 58.91,16.319 	"/>
	<path d="M62.488,17.213H37.424c0.398-0.979,0.795-1.957,1.193-2.936c7.489,0.014,14.979,0.028,22.468,0.043
		C61.553,15.284,62.02,16.248,62.488,17.213z"/>
</g>
<g>
	<g>
		<path d="M35.626,19.389c-1.043,1.564-2.085,3.128-3.128,4.692c-0.149,0.223-0.298,0.447-0.447,0.67
			c-0.291,0.436-0.099,1.126,0.359,1.368c0.503,0.266,1.058,0.107,1.368-0.359c1.043-1.564,2.085-3.128,3.128-4.692
			c0.149-0.223,0.298-0.447,0.447-0.67c0.291-0.436,0.099-1.126-0.359-1.368C36.491,18.764,35.936,18.923,35.626,19.389
			L35.626,19.389z"/>
	</g>
</g>
<g>
	<g>
		<path d="M30.087,27.697c-1.043,1.564-2.085,3.128-3.128,4.692c-0.149,0.223-0.298,0.447-0.447,0.67
			c-0.291,0.436-0.099,1.126,0.359,1.368c0.503,0.266,1.058,0.107,1.368-0.359c1.043-1.564,2.085-3.128,3.128-4.692
			c0.149-0.223,0.298-0.447,0.447-0.67c0.291-0.436,0.099-1.126-0.359-1.368C30.953,27.072,30.398,27.231,30.087,27.697
			L30.087,27.697z"/>
	</g>
</g>
<g>
	<g>
		<path d="M24.117,36.037c-1.043,1.564-2.085,3.128-3.128,4.692c-0.149,0.223-0.298,0.447-0.447,0.67
			c-0.291,0.436-0.099,1.126,0.359,1.368c0.503,0.266,1.058,0.107,1.368-0.359c1.043-1.564,2.085-3.128,3.128-4.692
			c0.149-0.223,0.298-0.447,0.447-0.67c0.291-0.436,0.099-1.126-0.359-1.368C24.982,35.413,24.427,35.571,24.117,36.037
			L24.117,36.037z"/>
	</g>
</g>
<g>
	<g>
		<path d="M41.436,20.291c-0.449,1.247-0.898,2.495-1.346,3.742c-0.065,0.18-0.129,0.359-0.194,0.539
			c-0.177,0.493,0.2,1.116,0.698,1.23c0.562,0.128,1.04-0.171,1.23-0.698c0.449-1.247,0.898-2.495,1.346-3.742
			c0.065-0.18,0.129-0.359,0.194-0.539c0.177-0.493-0.2-1.116-0.698-1.23C42.104,19.464,41.626,19.763,41.436,20.291L41.436,20.291z
			"/>
	</g>
</g>
<g>
	<g>
		<path d="M47.147,20.061c-0.206,1.312-0.412,2.624-0.617,3.936c-0.029,0.186-0.058,0.373-0.088,0.559
			c-0.043,0.275-0.045,0.521,0.101,0.771c0.121,0.207,0.359,0.405,0.598,0.46c0.479,0.109,1.143-0.146,1.23-0.698
			c0.206-1.312,0.412-2.624,0.617-3.936c0.029-0.186,0.058-0.373,0.088-0.559c0.043-0.275,0.045-0.521-0.101-0.771
			c-0.121-0.207-0.359-0.405-0.598-0.46C47.898,19.254,47.233,19.509,47.147,20.061L47.147,20.061z"/>
	</g>
</g>
<g>
	<g>
		<path d="M45.274,29.678c-0.382,2.435-0.764,4.87-1.146,7.305c-0.054,0.346-0.108,0.691-0.163,1.037
			c-0.084,0.533,0.136,1.076,0.698,1.23c0.475,0.13,1.146-0.162,1.23-0.698c0.382-2.435,0.764-4.87,1.146-7.305
			c0.054-0.346,0.108-0.691,0.163-1.037c0.084-0.533-0.136-1.076-0.698-1.23C46.029,28.85,45.358,29.142,45.274,29.678
			L45.274,29.678z"/>
	</g>
</g>
<g>
	<g>
		<path d="M52.738,20.445c0.248,2.448,0.496,4.896,0.744,7.344c0.036,0.352,0.071,0.705,0.107,1.057c0.054,0.537,0.421,1,1,1
			c0.499,0,1.055-0.459,1-1c-0.248-2.448-0.496-4.896-0.744-7.344c-0.036-0.352-0.071-0.705-0.107-1.057c-0.054-0.537-0.421-1-1-1
			C53.239,19.445,52.683,19.904,52.738,20.445L52.738,20.445z"/>
	</g>
</g>
<g>
	<g>
		<path d="M54.011,33.015c0.155,1.528,0.31,3.055,0.464,4.583c0.022,0.22,0.045,0.44,0.067,0.66c0.053,0.519,0.422,1.026,1,1
			c0.497-0.022,1.056-0.443,1-1c-0.155-1.528-0.31-3.055-0.464-4.583c-0.022-0.22-0.045-0.44-0.067-0.66
			c-0.053-0.519-0.422-1.026-1-1C54.515,32.037,53.955,32.457,54.011,33.015L54.011,33.015z"/>
	</g>
</g>
<g>
	<g>
		<path d="M58.107,20.809c0.338,1.5,0.676,2.999,1.014,4.499c0.048,0.214,0.096,0.427,0.145,0.641
			c0.115,0.511,0.733,0.859,1.23,0.698c0.535-0.173,0.822-0.683,0.698-1.23c-0.338-1.5-0.676-2.999-1.014-4.499
			c-0.048-0.214-0.096-0.427-0.145-0.641c-0.115-0.511-0.733-0.859-1.23-0.698C58.27,19.752,57.983,20.262,58.107,20.809
			L58.107,20.809z"/>
	</g>
</g>
<g>
	<g>
		<path d="M61.853,35.193c0.283,1.253,0.565,2.506,0.848,3.759c0.04,0.179,0.081,0.357,0.121,0.536
			c0.115,0.511,0.733,0.859,1.23,0.698c0.535-0.173,0.822-0.683,0.698-1.23c-0.283-1.253-0.565-2.506-0.848-3.759
			c-0.04-0.179-0.081-0.357-0.121-0.536c-0.115-0.511-0.733-0.859-1.23-0.698C62.016,34.136,61.729,34.646,61.853,35.193
			L61.853,35.193z"/>
	</g>
</g>
<g>
	<g>
		<path d="M63.124,21.173c0.642,1.112,1.284,2.224,1.926,3.336c0.092,0.159,0.184,0.318,0.276,0.477
			c0.262,0.453,0.916,0.65,1.368,0.359c0.457-0.295,0.639-0.883,0.359-1.368c-0.642-1.112-1.284-2.224-1.926-3.336
			c-0.092-0.159-0.184-0.318-0.276-0.477c-0.262-0.453-0.916-0.65-1.368-0.359C63.026,20.099,62.844,20.688,63.124,21.173
			L63.124,21.173z"/>
	</g>
</g>
<g>
	<g>
		<path d="M67.196,29.327c0.642,1.112,1.284,2.224,1.926,3.336c0.092,0.159,0.184,0.318,0.276,0.477
			c0.262,0.453,0.916,0.65,1.368,0.359c0.457-0.295,0.639-0.883,0.359-1.368c-0.642-1.112-1.284-2.224-1.926-3.336
			c-0.092-0.159-0.184-0.318-0.276-0.477c-0.262-0.453-0.916-0.65-1.368-0.359C67.097,28.254,66.916,28.842,67.196,29.327
			L67.196,29.327z"/>
	</g>
</g>
<g>
	<g>
		<path d="M72.393,37.228c0.642,1.112,1.284,2.224,1.926,3.336c0.092,0.159,0.184,0.318,0.276,0.477
			c0.262,0.453,0.916,0.65,1.368,0.359c0.457-0.295,0.639-0.883,0.359-1.368c-0.642-1.112-1.284-2.224-1.926-3.336
			c-0.092-0.159-0.184-0.318-0.276-0.477c-0.262-0.453-0.916-0.65-1.368-0.359C72.295,36.154,72.114,36.743,72.393,37.228
			L72.393,37.228z"/>
	</g>
</g>
<g>
	<g>
		<path d="M60.212,30.148c0.111,0.494,0.223,0.988,0.334,1.482c0.016,0.07,0.032,0.141,0.048,0.211
			c0.054,0.238,0.253,0.477,0.46,0.598c0.214,0.125,0.53,0.179,0.771,0.101c0.242-0.078,0.475-0.228,0.598-0.46
			c0.129-0.244,0.162-0.498,0.101-0.771c-0.111-0.494-0.223-0.988-0.334-1.482c-0.016-0.07-0.032-0.141-0.048-0.211
			c-0.054-0.238-0.253-0.477-0.46-0.598c-0.214-0.125-0.53-0.179-0.771-0.101c-0.242,0.078-0.475,0.228-0.598,0.46
			C60.184,29.622,60.151,29.876,60.212,30.148L60.212,30.148z"/>
	</g>
</g>
<g>
	<g>
		<path d="M38.764,28.476c-0.449,1.247-0.898,2.495-1.346,3.742c-0.065,0.18-0.129,0.359-0.194,0.539
			c-0.177,0.493,0.2,1.116,0.698,1.23c0.562,0.128,1.04-0.171,1.23-0.698c0.449-1.247,0.898-2.495,1.346-3.742
			c0.065-0.18,0.129-0.359,0.194-0.539c0.177-0.493-0.2-1.116-0.698-1.23C39.431,27.649,38.953,27.948,38.764,28.476L38.764,28.476z
			"/>
	</g>
</g>
<g>
	<g>
		<path d="M34.849,35.88c-0.449,1.247-0.898,2.495-1.346,3.742c-0.065,0.18-0.129,0.359-0.194,0.539
			c-0.177,0.493,0.2,1.116,0.698,1.23c0.562,0.128,1.04-0.171,1.23-0.698c0.449-1.247,0.898-2.495,1.346-3.742
			c0.065-0.18,0.129-0.359,0.194-0.539c0.177-0.493-0.2-1.116-0.698-1.23C35.516,35.054,35.039,35.352,34.849,35.88L34.849,35.88z"
			/>
	</g>
</g>
<circle cx="50.625" cy="39.223" r="2.759"/>
<circle cx="14.348" cy="33.326" r="2.759"/>
<circle cx="87.21" cy="41.002" r="3.927"/>
<circle cx="88.65" cy="58.54" r="2.564"/>
<circle cx="23.57" cy="47.252" r="1.692"/>
<circle cx="7.775" cy="53.1" r="2.875"/>
</svg>
