<svg xmlns="http://www.w3.org/2000/svg" width="200" height="200" viewBox="0 0 200 200"><circle cx="100" cy="100" r="100" fill="black"/><circle cx="100" cy="100" r="70" fill="white"/><circle cx="100" cy="100" r="10" fill="white"/><circle cx="100" cy="100" r="10" fill="white" transform="rotate(45 100 100)"/><circle cx="100" cy="100" r="10" fill="white" transform="rotate(90 100 100)"/><circle cx="100" cy="100" r="10" fill="white" transform="rotate(135 100 100)"/><circle cx="100" cy="100" r="10" fill="white" transform="rotate(180 100 100)"/><circle cx="100" cy="100" r="10" fill="white" transform="rotate(225 100 100)"/><circle cx="100" cy="100" r="10" fill="white" transform="rotate(270 100 100)"/><circle cx="100" cy="100" r="10" fill="white" transform="rotate(315 100 100)"/><circle cx="100" cy="100" r="10" fill="black"/><line x1="100" y1="100" x2="170" y2="100" stroke="black" stroke-width="13" stroke-linecap="round"/><line x1="100" y1="100" x2="30" y2="100" stroke="black" stroke-width="13" stroke-linecap="round"/><line x1="100" y1="100" x2="100" y2="170" stroke="black" stroke-width="13" stroke-linecap="round"/><line x1="100" y1="100" x2="100" y2="30" stroke="black" stroke-width="13" stroke-linecap="round"/></svg>